<?xml version="1.0" encoding="utf-8"?>
<!-- Generator: Adobe Illustrator 16.0.0, SVG Export Plug-In . SVG Version: 6.00 Build 0)  -->
<!DOCTYPE svg PUBLIC "-//W3C//DTD SVG 1.1//EN" "http://www.w3.org/Graphics/SVG/1.1/DTD/svg11.dtd">
<svg version="1.1" id="Layer_1" xmlns="http://www.w3.org/2000/svg" xmlns:xlink="http://www.w3.org/1999/xlink" x="0px" y="0px"
	 width="34.626px" height="40px" viewBox="0 0 34.626 40" enable-background="new 0 0 34.626 40" xml:space="preserve">
<g>
	<path d="M24.353,25.434c0.057,0.032,0.106,0.095,0.135,0.155c0.664,1.391,1.324,2.784,1.986,4.176
		c0.286,0.603,0.571,1.206,0.86,1.806c0.267,0.552,0.845,0.816,1.406,0.653c0.656-0.191,1.097-0.94,0.712-1.719
		c-0.318-0.647-0.622-1.302-0.932-1.954c-0.149-0.313-0.298-0.627-0.467-0.984c0.267,0.153,0.491,0.282,0.717,0.412
		c1.351,0.78,2.701,1.561,4.053,2.339c0.477,0.274,1.035,0.217,1.414-0.137c0.605-0.565,0.492-1.488-0.247-1.918
		c-1.343-0.783-2.691-1.557-4.037-2.333c-0.224-0.129-0.448-0.259-0.671-0.388c0.62-0.08,1.229-0.127,1.838-0.177
		c0.502-0.042,1.006-0.068,1.505-0.132c0.667-0.085,1.077-0.626,1.01-1.322c-0.055-0.575-0.606-1.062-1.211-1.019
		c-0.164,0.012-0.328,0.022-0.492,0.035c-0.884,0.067-1.77,0.133-2.654,0.204c-1.168,0.094-2.336,0.195-3.504,0.286
		c-0.096,0.007-0.208-0.022-0.292-0.07c-1.638-0.939-3.272-1.885-4.908-2.829c-0.291-0.168-0.582-0.338-0.888-0.516
		c0.041-0.028,0.062-0.043,0.084-0.057c1.915-1.105,3.83-2.211,5.747-3.313c0.062-0.036,0.145-0.056,0.216-0.051
		c0.606,0.043,1.212,0.095,1.818,0.144c0.611,0.05,1.223,0.1,1.834,0.149c0.497,0.041,0.993,0.082,1.49,0.12
		c0.53,0.041,1.059,0.086,1.589,0.113c0.403,0.02,0.724-0.165,0.956-0.484c0.267-0.366,0.301-0.771,0.117-1.181
		c-0.204-0.455-0.584-0.664-1.066-0.702c-0.896-0.071-1.792-0.138-2.687-0.208c-0.162-0.013-0.324-0.032-0.485-0.047
		c0-0.012,0-0.023,0-0.035c0.037-0.023,0.072-0.048,0.109-0.069c0.749-0.433,1.498-0.864,2.247-1.296
		c0.777-0.448,1.554-0.899,2.332-1.346c0.398-0.229,0.62-0.572,0.632-1.027c0.011-0.451-0.193-0.808-0.581-1.037
		c-0.399-0.235-0.812-0.23-1.216,0.003c-1.09,0.628-2.18,1.259-3.271,1.888c-0.486,0.281-0.972,0.561-1.492,0.861
		c0.034-0.078,0.051-0.121,0.071-0.163c0.436-0.918,0.87-1.838,1.311-2.754c0.127-0.265,0.194-0.538,0.132-0.827
		C29.46,8.146,29.041,7.78,28.5,7.725c-0.467-0.048-0.951,0.245-1.174,0.714c-0.935,1.965-1.869,3.93-2.799,5.896
		c-0.059,0.125-0.135,0.212-0.255,0.282c-1.864,1.072-3.727,2.148-5.59,3.223c-0.054,0.032-0.109,0.062-0.175,0.099
		c-0.004-0.046-0.008-0.067-0.008-0.089c0-2.221-0.001-4.443,0.002-6.665c0-0.064,0.03-0.138,0.067-0.193
		c0.625-0.913,1.252-1.824,1.88-2.735c0.634-0.92,1.271-1.838,1.9-2.762c0.251-0.369,0.271-0.771,0.079-1.171
		c-0.4-0.833-1.52-0.896-2.061-0.116c-0.585,0.841-1.164,1.686-1.746,2.528c-0.032,0.046-0.068,0.089-0.123,0.16
		c0-0.448,0-0.859,0-1.271c0-1.415,0.003-2.831-0.001-4.246c-0.003-0.737-0.646-1.278-1.375-1.166
		c-0.576,0.089-0.994,0.584-0.994,1.189c-0.002,1.767,0,3.533,0,5.299c0,0.054,0,0.108,0,0.208
		c-0.107-0.153-0.183-0.261-0.257-0.369c-0.564-0.815-1.115-1.64-1.697-2.441c-0.398-0.548-1.224-0.591-1.718-0.126
		c-0.443,0.417-0.506,1.045-0.147,1.567c1.244,1.81,2.491,3.618,3.733,5.43c0.051,0.074,0.083,0.179,0.083,0.269
		c0.004,2.172,0.003,4.345,0.003,6.517c0,0.053,0,0.106,0,0.18c-0.043-0.021-0.068-0.03-0.089-0.043
		c-1.925-1.11-3.85-2.22-5.773-3.333c-0.052-0.03-0.098-0.088-0.125-0.143c-0.662-1.386-1.32-2.774-1.98-4.161
		C7.858,9.619,7.564,8.978,7.246,8.349c-0.256-0.506-0.834-0.73-1.367-0.574C5.217,7.969,4.807,8.731,5.157,9.453
		c0.408,0.841,0.804,1.688,1.204,2.533c0.064,0.135,0.127,0.271,0.208,0.442c-0.076-0.043-0.113-0.063-0.149-0.085
		c-1.527-0.881-3.054-1.761-4.579-2.643c-0.28-0.162-0.569-0.228-0.895-0.171c-0.574,0.1-1.032,0.745-0.932,1.316
		c0.074,0.421,0.303,0.713,0.667,0.921c1.513,0.871,3.025,1.744,4.538,2.617c0.042,0.025,0.083,0.054,0.156,0.101
		c-0.654,0.052-1.265,0.1-1.875,0.15c-0.502,0.041-1.006,0.071-1.505,0.132c-0.556,0.068-0.982,0.527-1.008,1.047
		c-0.031,0.631,0.304,1.133,0.896,1.256c0.255,0.054,0.533,0.02,0.799,0.001c0.886-0.062,1.77-0.131,2.654-0.202
		c1.168-0.095,2.336-0.195,3.505-0.285c0.101-0.007,0.22,0.021,0.308,0.072c1.884,1.082,3.766,2.168,5.647,3.255
		c0.044,0.026,0.086,0.057,0.136,0.089c-0.027,0.02-0.039,0.031-0.052,0.039c-1.924,1.111-3.849,2.223-5.774,3.331
		c-0.062,0.036-0.146,0.055-0.216,0.05c-0.595-0.042-1.19-0.093-1.785-0.14c-0.628-0.051-1.256-0.102-1.883-0.153
		c-0.492-0.04-0.982-0.083-1.474-0.12c-0.524-0.041-1.048-0.084-1.573-0.112c-0.403-0.022-0.725,0.157-0.961,0.474
		c-0.274,0.369-0.31,0.779-0.123,1.195c0.205,0.455,0.586,0.661,1.069,0.699c0.896,0.07,1.792,0.137,2.687,0.207
		c0.165,0.013,0.329,0.032,0.53,0.051c-0.052,0.034-0.069,0.045-0.087,0.056c-0.777,0.449-1.555,0.897-2.333,1.346
		c-0.777,0.449-1.554,0.898-2.331,1.347c-0.391,0.227-0.607,0.57-0.618,1.019c-0.01,0.443,0.185,0.799,0.565,1.029
		c0.402,0.243,0.819,0.243,1.229,0.006c1.541-0.89,3.081-1.779,4.622-2.667c0.038-0.022,0.078-0.04,0.143-0.072
		c-0.035,0.075-0.056,0.119-0.077,0.164c-0.434,0.913-0.865,1.828-1.304,2.739c-0.13,0.271-0.197,0.548-0.131,0.842
		c0.117,0.529,0.519,0.886,1.066,0.943c0.366,0.039,0.909-0.134,1.179-0.705c0.924-1.951,1.853-3.9,2.775-5.853
		c0.075-0.16,0.176-0.272,0.332-0.361c1.615-0.926,3.225-1.858,4.836-2.789c0.287-0.166,0.575-0.33,0.88-0.505
		c0.003,0.056,0.007,0.087,0.007,0.119c0,2.21,0.001,4.421-0.002,6.632c0,0.065-0.027,0.14-0.064,0.194
		c-0.73,1.066-1.465,2.13-2.198,3.195c-0.522,0.758-1.044,1.515-1.564,2.274c-0.264,0.385-0.3,0.795-0.096,1.213
		c0.406,0.825,1.515,0.886,2.053,0.115c0.445-0.638,0.883-1.281,1.325-1.921c0.172-0.25,0.346-0.499,0.547-0.789
		c0,0.102,0,0.155,0,0.208c0,0.862,0,1.723,0,2.584c0,0.921-0.005,1.843,0.002,2.765c0.005,0.708,0.657,1.252,1.349,1.144
		c0.601-0.095,1.017-0.575,1.018-1.185c0.002-1.766,0-3.533,0-5.299c0-0.057,0-0.114,0-0.213c0.082,0.115,0.136,0.189,0.188,0.265
		c0.586,0.847,1.158,1.703,1.762,2.537c0.408,0.563,1.243,0.6,1.74,0.114c0.425-0.415,0.482-1.033,0.133-1.542
		c-1.247-1.815-2.497-3.627-3.743-5.442c-0.046-0.067-0.077-0.159-0.077-0.239c-0.004-2.189-0.003-4.377-0.003-6.566
		c0-0.046,0.006-0.092,0.01-0.151c0.036,0.017,0.054,0.025,0.073,0.036L24.353,25.434z"/>
</g>
</svg>
