<?xml version="1.0" encoding="utf-8"?>
<!-- Generator: Adobe Illustrator 16.0.0, SVG Export Plug-In . SVG Version: 6.00 Build 0)  -->
<!DOCTYPE svg PUBLIC "-//W3C//DTD SVG 1.1//EN" "http://www.w3.org/Graphics/SVG/1.1/DTD/svg11.dtd">
<svg version="1.1" id="Layer_1" xmlns="http://www.w3.org/2000/svg" xmlns:xlink="http://www.w3.org/1999/xlink" x="0px" y="0px"
	 width="30px" height="30px" viewBox="0 0 30 30" enable-background="new 0 0 30 30" xml:space="preserve">
<g id="rfbCID.tif">
	<g>
		<path fill-rule="evenodd" clip-rule="evenodd" fill="none" stroke="#666666" stroke-miterlimit="10" d="M16.636,27.979
			c0.395,0.162,0.762,0.388,1.142,0.584c0.542,0.281,1.08,0.567,1.626,0.839c0.202,0.1,0.462,0.126,0.492-0.164
			c0.07-0.675,0.21-1.358-0.292-1.972c-0.816-0.995-1.6-2.016-2.389-3.033c-0.092-0.118-0.193-0.272-0.193-0.41
			c0.012-1.417,0.032-2.834,0.079-4.25c0.013-0.403,0.25-0.538,0.647-0.434c0.577,0.15,1.151,0.313,1.726,0.474
			c3.199,0.897,6.398,1.796,9.597,2.69c0.562,0.158,0.755,0,0.814-0.583c0.081-0.809-0.254-1.39-0.898-1.859
			c-3.703-2.687-7.395-5.388-11.097-8.076c-0.423-0.307-0.652-0.688-0.665-1.208c-0.012-0.533-0.037-1.065-0.052-1.599
			c-0.057-2.079-0.071-4.161-0.182-6.237c-0.065-1.219-0.502-2.289-1.782-2.769c-0.208,0-0.416,0-0.624,0
			c-1.316,0.496-1.725,1.601-1.784,2.847c-0.104,2.181-0.124,4.366-0.18,6.549c-0.009,0.338-0.04,0.676-0.031,1.013
			c0.016,0.693-0.317,1.146-0.87,1.544c-3.646,2.63-7.272,5.289-10.912,7.93c-0.425,0.31-0.718,0.696-0.892,1.184
			c0,0.26,0,0.521,0,0.781c0.245,0.606,0.316,0.639,1.002,0.447c3.636-1.021,7.272-2.043,10.908-3.065
			c0.728-0.205,0.893-0.101,0.914,0.66c0.036,1.287,0.053,2.574,0.056,3.861c0,0.175-0.089,0.377-0.199,0.52
			c-0.792,1.031-1.588,2.059-2.406,3.07c-0.49,0.605-0.296,1.288-0.256,1.944c0.017,0.273,0.305,0.237,0.504,0.139
			c0.524-0.26,1.04-0.532,1.557-0.804c0.31-0.164,0.611-0.345,0.926-0.499c0.185-0.089,0.383-0.169,0.584-0.203
			C14.456,27.582,16.282,27.739,16.636,27.979z"/>
	</g>
</g>
</svg>
