<?xml version="1.0" encoding="utf-8"?>
<!-- Generator: Adobe Illustrator 16.0.0, SVG Export Plug-In . SVG Version: 6.00 Build 0)  -->
<!DOCTYPE svg PUBLIC "-//W3C//DTD SVG 1.1//EN" "http://www.w3.org/Graphics/SVG/1.1/DTD/svg11.dtd">
<svg version="1.1" id="Layer_1" xmlns="http://www.w3.org/2000/svg" xmlns:xlink="http://www.w3.org/1999/xlink" x="0px" y="0px"
	 width="40px" height="40px" viewBox="0 0 40 40" enable-background="new 0 0 40 40" xml:space="preserve">
<g>
	<path fill-rule="evenodd" clip-rule="evenodd" d="M18.612,33.366c-0.273,0.172-0.535,0.338-0.795,0.503
		c-1.056,0.671-2.111,1.342-3.167,2.011c-0.188,0.12-0.284,0.077-0.329-0.138c-0.116-0.558-0.228-1.118-0.349-1.673
		c-0.038-0.17,0.018-0.266,0.164-0.354c1.483-0.896,2.962-1.798,4.445-2.694c0.099-0.061,0.145-0.119,0.145-0.243
		c0-0.311,0.026-0.622,0.033-0.932c0-0.045-0.046-0.11-0.089-0.136c-0.619-0.379-1.242-0.75-1.865-1.124
		c-1.513-0.907-3.027-1.812-4.538-2.723c-0.118-0.071-0.21-0.086-0.338-0.017c-0.292,0.157-0.596,0.29-0.892,0.441
		c-0.047,0.025-0.097,0.094-0.1,0.146c-0.026,0.408-0.041,0.817-0.06,1.228c-0.039,0.808-0.08,1.614-0.117,2.421
		c-0.024,0.512-0.046,1.026-0.064,1.539c-0.008,0.273-0.014,0.29-0.275,0.371c-0.53,0.164-1.061,0.327-1.59,0.489
		c-0.203,0.061-0.292,0.002-0.279-0.208c0.03-0.544,0.068-1.087,0.103-1.628c0.037-0.564,0.075-1.129,0.112-1.693
		c0.031-0.449,0.062-0.897,0.094-1.374c-0.068,0.031-0.122,0.054-0.172,0.082c-1.509,0.839-3.018,1.68-4.527,2.52
		c-0.262,0.146-0.281,0.144-0.44-0.11c-0.325-0.519-0.648-1.038-0.972-1.559c-0.115-0.185-0.093-0.26,0.097-0.352
		c1.478-0.709,2.955-1.417,4.433-2.125c0.107-0.052,0.214-0.104,0.349-0.167c-0.387-0.167-0.75-0.325-1.114-0.481
		c-1.129-0.482-2.259-0.963-3.389-1.445c-0.202-0.086-0.221-0.153-0.106-0.346c0.262-0.44,0.525-0.882,0.786-1.325
		c0.108-0.182,0.145-0.195,0.336-0.111c1.622,0.714,3.243,1.429,4.866,2.143c0.233,0.102,0.463,0.21,0.699,0.303
		c0.062,0.024,0.153,0.026,0.212-0.001c0.335-0.154,0.663-0.321,0.993-0.482c0.077-0.038,0.108-0.077,0.106-0.175
		c-0.021-0.648-0.029-1.297-0.047-1.944c-0.029-1.089-0.062-2.178-0.093-3.267c-0.021-0.762-0.043-1.525-0.061-2.287
		c-0.004-0.2-0.049-0.353-0.249-0.464c-0.329-0.185-0.635-0.413-0.957-0.613c-0.051-0.031-0.141-0.04-0.196-0.019
		c-1.887,0.697-3.772,1.397-5.656,2.099c-0.239,0.088-0.281,0.07-0.398-0.16c-0.226-0.444-0.456-0.886-0.682-1.33
		C2.578,15.77,2.61,15.7,2.813,15.626c1.511-0.542,3.024-1.085,4.536-1.629c0.009-0.002,0.017-0.011,0.044-0.032
		c-0.235-0.133-0.461-0.263-0.688-0.389c-1.32-0.731-2.64-1.462-3.959-2.192c-0.147-0.081-0.169-0.168-0.073-0.304
		c0.38-0.539,0.762-1.076,1.144-1.612c0.096-0.135,0.17-0.147,0.315-0.055c0.626,0.398,1.251,0.798,1.877,1.196
		c0.871,0.554,1.742,1.107,2.613,1.661c0.029,0.02,0.062,0.036,0.118,0.067c0-0.26,0.001-0.499,0-0.74
		c0-0.046-0.007-0.093-0.008-0.14c-0.004-1.058-0.01-2.118-0.016-3.178c0-0.224-0.01-0.447-0.008-0.669
		c0-0.174,0.09-0.243,0.254-0.184c0.579,0.212,1.158,0.426,1.732,0.652c0.056,0.021,0.116,0.124,0.116,0.189
		c0.002,0.555-0.009,1.11-0.017,1.666c-0.005,0.39-0.014,0.779-0.018,1.167c-0.007,0.566-0.011,1.132-0.016,1.698
		c-0.002,0.26-0.007,0.519-0.017,0.778c-0.003,0.089,0.025,0.141,0.104,0.185c0.325,0.184,0.65,0.369,0.97,0.564
		c0.091,0.057,0.155,0.041,0.238-0.008c1.29-0.762,2.582-1.523,3.874-2.283c0.907-0.533,1.814-1.069,2.725-1.597
		c0.14-0.082,0.208-0.167,0.2-0.339c-0.018-0.362-0.014-0.727-0.012-1.091c0.001-0.099-0.028-0.159-0.108-0.219
		c-1.115-0.855-2.228-1.714-3.342-2.572c-0.494-0.38-0.985-0.763-1.482-1.138c-0.125-0.093-0.143-0.187-0.065-0.316
		c0.278-0.463,0.551-0.929,0.829-1.392c0.086-0.144,0.168-0.154,0.305-0.046c0.587,0.461,1.173,0.925,1.761,1.387
		c0.664,0.524,1.329,1.046,1.994,1.569c0.027,0.021,0.056,0.039,0.117,0.082c-0.017-0.3-0.03-0.565-0.043-0.83
		c-0.044-0.886-0.088-1.771-0.134-2.655c-0.031-0.611-0.066-1.223-0.1-1.833c-0.008-0.168,0.038-0.226,0.203-0.217
		c0.683,0.036,1.367,0.075,2.049,0.125c0.05,0.003,0.137,0.092,0.138,0.143c0.009,0.488,0.002,0.977,0,1.465
		c0,0.057-0.008,0.113-0.008,0.17c-0.002,0.952-0.004,1.901-0.006,2.852c0,0.339,0,0.681,0,1.043
		c0.237-0.149,0.468-0.294,0.699-0.441c1.086-0.688,2.171-1.378,3.259-2.066c0.188-0.12,0.279-0.078,0.324,0.142
		c0.113,0.559,0.225,1.118,0.346,1.675c0.034,0.154,0.002,0.249-0.14,0.333c-1.496,0.883-2.989,1.773-4.484,2.659
		c-0.087,0.05-0.124,0.103-0.121,0.207c0.014,0.368,0.012,0.736,0.028,1.104c0.002,0.058,0.052,0.135,0.103,0.165
		c1.007,0.599,2.018,1.192,3.027,1.787c1.273,0.752,2.547,1.504,3.817,2.258c0.12,0.071,0.213,0.084,0.34,0.018
		c0.289-0.153,0.588-0.287,0.876-0.44c0.054-0.028,0.108-0.113,0.11-0.175c0.045-0.874,0.079-1.749,0.12-2.625
		c0.028-0.657,0.061-1.315,0.092-1.972c0.012-0.238,0.027-0.476,0.04-0.713c0.005-0.1,0.045-0.159,0.147-0.19
		c0.58-0.175,1.158-0.358,1.739-0.533c0.174-0.053,0.26,0.021,0.249,0.202c-0.068,1.034-0.137,2.068-0.206,3.103
		c-0.035,0.528-0.068,1.054-0.103,1.608c0.114-0.059,0.214-0.107,0.309-0.162c1.482-0.825,2.963-1.65,4.443-2.475
		c0.191-0.107,0.233-0.098,0.351,0.093c0.339,0.541,0.675,1.083,1.013,1.625c0.106,0.17,0.086,0.242-0.094,0.328
		c-1.13,0.544-2.262,1.086-3.393,1.629c-0.453,0.217-0.906,0.436-1.383,0.665c0.052,0.029,0.086,0.054,0.125,0.071
		c1.458,0.623,2.916,1.247,4.374,1.869c0.181,0.077,0.207,0.151,0.104,0.324c-0.264,0.447-0.528,0.893-0.793,1.338
		c-0.104,0.175-0.155,0.192-0.341,0.11c-1.531-0.675-3.063-1.35-4.595-2.024c-0.322-0.142-0.645-0.288-0.97-0.423
		c-0.052-0.022-0.134-0.024-0.184,0.001c-0.371,0.195-0.738,0.402-1.107,0.6c-0.075,0.04-0.099,0.087-0.102,0.17
		c-0.013,0.502-0.032,1.004-0.048,1.508c-0.034,1.151-0.069,2.302-0.103,3.453c-0.014,0.461-0.026,0.923-0.038,1.385
		c-0.012,0.487-0.021,0.975-0.039,1.462c-0.003,0.109,0.036,0.167,0.13,0.218c0.305,0.166,0.607,0.337,0.907,0.514
		c0.083,0.047,0.145,0.039,0.226-0.008c1.522-0.858,3.048-1.711,4.567-2.573c0.146-0.082,0.244-0.062,0.36,0.042
		c0.427,0.378,0.86,0.749,1.29,1.125c0.174,0.151,0.16,0.252-0.045,0.363c-1.322,0.707-2.643,1.415-3.964,2.123
		c-0.05,0.027-0.098,0.057-0.166,0.097c0.493,0.271,0.97,0.535,1.447,0.798c1.112,0.614,2.223,1.228,3.335,1.842
		c0.153,0.085,0.172,0.145,0.096,0.303c-0.285,0.586-0.571,1.173-0.859,1.761c-0.082,0.169-0.157,0.189-0.317,0.087
		c-1.393-0.882-2.785-1.767-4.179-2.65c-0.099-0.062-0.2-0.122-0.319-0.195c0.107,0.696,0.209,1.367,0.313,2.037
		c0.148,0.947,0.299,1.894,0.448,2.841c0.02,0.132-0.024,0.214-0.168,0.22c-0.222,0.008-0.445,0.021-0.667,0.024
		c-0.333,0.008-0.665,0.005-0.998,0.015c-0.133,0.003-0.2-0.046-0.219-0.182c-0.173-1.221-0.349-2.442-0.524-3.663
		c-0.116-0.8-0.23-1.602-0.351-2.4c-0.008-0.051-0.051-0.118-0.097-0.141c-0.446-0.242-0.896-0.478-1.349-0.708
		c-0.036-0.02-0.102-0.007-0.141,0.014c-1.315,0.708-2.629,1.418-3.942,2.128c-0.907,0.491-1.814,0.984-2.723,1.472
		c-0.1,0.054-0.14,0.111-0.136,0.227c0.01,0.29-0.002,0.583,0.008,0.873c0.003,0.069,0.043,0.161,0.097,0.204
		c1.291,1.027,2.585,2.05,3.88,3.074c0.325,0.257,0.648,0.518,0.976,0.773c0.118,0.09,0.128,0.185,0.054,0.308
		c-0.265,0.44-0.525,0.883-0.787,1.324c-0.132,0.221-0.193,0.235-0.4,0.071c-1.223-0.961-2.446-1.926-3.668-2.887
		c-0.039-0.031-0.08-0.059-0.15-0.111c0.018,0.344,0.034,0.652,0.049,0.96c0.027,0.543,0.051,1.087,0.082,1.63
		c0.047,0.869,0.098,1.737,0.148,2.608c0.002,0.05,0,0.104,0.001,0.155c0.007,0.143-0.07,0.198-0.202,0.19
		c-0.378-0.021-0.756-0.042-1.134-0.063c-0.279-0.017-0.559-0.036-0.838-0.05c-0.181-0.008-0.231-0.054-0.231-0.232
		c0.002-0.692,0.005-1.382,0.01-2.073c0.007-1.033,0.017-2.066,0.026-3.099C18.612,33.567,18.612,33.476,18.612,33.366z"/>
</g>
</svg>
