<?xml version="1.0" encoding="iso-8859-1"?>
<!-- Generator: Adobe Illustrator 16.0.0, SVG Export Plug-In . SVG Version: 6.00 Build 0)  -->
<!DOCTYPE svg PUBLIC "-//W3C//DTD SVG 1.1//EN" "http://www.w3.org/Graphics/SVG/1.1/DTD/svg11.dtd">
<svg version="1.1" id="Capa_1" xmlns="http://www.w3.org/2000/svg" xmlns:xlink="http://www.w3.org/1999/xlink" x="0px" y="0px"
	 width="771.807px" height="771.806px" viewBox="0 0 771.807 771.806" style="enable-background:new 0 0 771.807 771.806;"
	 xml:space="preserve">
<g>
	<path d="M675.276,2.615c-11.797-4.806-22.199-2.861-31.639,4.806L397.432,206.985H109.941c-16.638,0-30.038,13.388-30.038,30.095
		v297.63c0,16.592,13.399,29.522,30.038,29.522h287.491l246.206,201.166c5.309,4.348,11.797,6.408,18.766,6.408
		c4.291,0,8.502-1.259,12.873-3.204c11.18-5.035,16.627-13.961,16.627-26.319V30.536C691.903,18.177,686.536,8.577,675.276,2.615z
		 M632.366,679.576L426.932,511.708c-5.904-4.92-11.798-6.979-18.229-6.979H139.44V266.488h269.263
		c6.969,0,12.919-2.06,18.229-6.408L632.366,91.652V679.576z"/>
</g>
<g>
</g>
<g>
</g>
<g>
</g>
<g>
</g>
<g>
</g>
<g>
</g>
<g>
</g>
<g>
</g>
<g>
</g>
<g>
</g>
<g>
</g>
<g>
</g>
<g>
</g>
<g>
</g>
<g>
</g>
</svg>
